<svg width="168" height="168" viewBox="0 0 168 168" fill="none" xmlns="http://www.w3.org/2000/svg">
<g clip-path="url(#clip0)">
<path d="M29.8256 131V122.936L43.9376 119.624L78.3536 29.48H90.8816L123.138 119.624L136.962 122.936V131H88.1456V122.936L98.3696 120.488L92.1776 103.208H61.9376L55.4576 120.056L67.5536 122.936V131H29.8256ZM65.8256 93.272H88.5776L77.3456 62.6L65.8256 93.272Z" fill="#0E1610"/>
<path d="M116.56 32.92C116.56 29.2933 117.893 26.1467 120.56 23.48C123.333 20.7067 126.587 19.32 130.32 19.32C134.053 19.32 137.253 20.6533 139.92 23.32C142.587 25.9867 143.92 29.1867 143.92 32.92C143.92 36.44 142.587 39.64 139.92 42.52C137.253 45.2933 134.053 46.68 130.32 46.68C126.587 46.68 123.333 45.2933 120.56 42.52C117.893 39.64 116.56 36.44 116.56 32.92Z" fill="#77DB92"/>
</g>
<defs>
<clipPath id="clip0">
<rect width="168" height="168" fill="white"/>
</clipPath>
</defs>
</svg>
