<svg width="59" height="37" viewBox="0 0 59 37" fill="none" xmlns="http://www.w3.org/2000/svg">
<path d="M0.78 27V25.768L2.936 25.262L8.194 11.49H10.108L15.036 25.262L17.148 25.768V27H9.69V25.768L11.252 25.394L10.306 22.754H5.686L4.696 25.328L6.544 25.768V27H0.78ZM6.28 21.236H9.756L8.04 16.55L6.28 21.236ZM16.28 17.166V16H21.538V23.59C21.538 24.338 21.626 24.8587 21.802 25.152C21.9927 25.4307 22.3667 25.57 22.924 25.57C23.3494 25.57 23.7894 25.46 24.244 25.24C24.6987 25.02 25.0654 24.7267 25.344 24.36V17.606L23.914 17.166V16H28.754V25.35H30.47V26.296C30.1474 26.516 29.8834 26.6773 29.678 26.78C29.4874 26.868 29.2674 26.956 29.018 27.044C28.7834 27.1467 28.534 27.22 28.27 27.264C28.0207 27.308 27.786 27.33 27.566 27.33C26.51 27.33 25.7694 26.8533 25.344 25.9C24.3027 26.8533 23.0267 27.33 21.516 27.33C19.272 27.33 18.15 26.1787 18.15 23.876V17.606L16.28 17.166ZM31.0859 27V25.834L32.9559 25.394V11.402H31.0859V10.236L34.6059 9.4H36.3439V25.394L38.2139 25.834V27H31.0859ZM39.1932 24.272C39.1932 22.996 39.7139 22.028 40.7552 21.368C41.8112 20.6933 43.5125 20.356 45.8592 20.356V19.696C45.8592 19.256 45.8519 18.9407 45.8372 18.75C45.8372 18.5447 45.8079 18.3027 45.7492 18.024C45.6905 17.7453 45.6025 17.5473 45.4852 17.43C45.3825 17.3127 45.2212 17.21 45.0012 17.122C44.7812 17.0193 44.5099 16.968 44.1872 16.968L41.3932 19.388C40.3959 18.816 39.8972 17.9287 39.8972 16.726L40.5572 16.44C40.8359 16.3227 41.3785 16.1687 42.1852 15.978C42.9919 15.7727 43.7765 15.67 44.5392 15.67C47.6925 15.67 49.2692 16.9313 49.2692 19.454V25.35H50.9852V26.296C50.9119 26.3693 50.8092 26.4647 50.6772 26.582C50.5452 26.6993 50.2592 26.8533 49.8192 27.044C49.3792 27.2347 48.9245 27.33 48.4552 27.33C47.3405 27.33 46.5119 26.956 45.9692 26.208C44.9865 26.956 43.9159 27.33 42.7572 27.33C41.7452 27.33 40.8945 27.0733 40.2052 26.56C39.5305 26.0467 39.1932 25.284 39.1932 24.272ZM42.7352 24.074C42.7352 24.4993 42.8745 24.8367 43.1532 25.086C43.4465 25.3353 43.7985 25.46 44.2092 25.46C44.8692 25.46 45.4192 25.218 45.8592 24.734V21.72C45.0379 21.72 44.3119 21.94 43.6812 22.38C43.0505 22.8053 42.7352 23.37 42.7352 24.074Z" fill="#0E1610"/>
<path d="M52.271 25.236C52.271 24.6013 52.5044 24.0507 52.971 23.584C53.4564 23.0987 54.0257 22.856 54.679 22.856C55.3324 22.856 55.8924 23.0893 56.359 23.556C56.8257 24.0227 57.059 24.5827 57.059 25.236C57.059 25.852 56.8257 26.412 56.359 26.916C55.8924 27.4013 55.3324 27.644 54.679 27.644C54.0257 27.644 53.4564 27.4013 52.971 26.916C52.5044 26.412 52.271 25.852 52.271 25.236Z" fill="#77DB92"/>
</svg>
