<svg width="16px" height="20px" viewBox="0 0 16 20" version="1.1" xmlns="http://www.w3.org/2000/svg" xmlns:xlink="http://www.w3.org/1999/xlink">
                <!-- Generator: Sketch 51.3 (57544) - http://www.bohemiancoding.com/sketch -->
                <desc>Created with Sketch.</desc>
                <defs></defs>
                <g id="Desktop" stroke="none" stroke-width="1" fill="none" fill-rule="evenodd">
                    <g id="Desktop-Signin-Email-001-Copy" transform="translate(-712.000000, -562.000000)" fill="#000000">
                        <g id="Group-2" transform="translate(520.000000, 223.000000)">
                            <g id="Group-3" transform="translate(56.000000, 338.000000)">
                                <g id="Icons-/-Action-/-Lock" transform="translate(132.000000, 0.000000)">
                                    <g id="Page-1">
                                        <path d="M10,9 L10,6 C10,4.916 10.916,4 12,4 C13.084,4 14,4.916 14,6 L14,9 L10,9 Z M12,17 C10.896,17 10,16.104 10,15 C10,13.896 10.896,13 12,13 C13.104,13 14,13.896 14,15 C14,16.104 13.104,17 12,17 Z M18,9 L17.5,9 C17.224,9 17,8.776 17,8.5 L17,6.176 C17,3.898 15.558,1.772 13.358,1.182 C10.032,0.29 7,2.808 7,6 L7,8.5 C7,8.776 6.776,9 6.5,9 L6,9 C4.9,9 4,9.9 4,11 L4,19 C4,20.1 4.9,21 6,21 L18,21 C19.1,21 20,20.1 20,19 L20,11 C20,9.9 19.1,9 18,9 Z" id="Fill-1"></path>
                                    </g>
                                </g>
                            </g>
                        </g>
                    </g>
                </g>
            </svg>
