<?xml version="1.0" encoding="UTF-8"?>
<svg width="1305px" height="514px" viewBox="0 0 1305 514" version="1.1" xmlns="http://www.w3.org/2000/svg" xmlns:xlink="http://www.w3.org/1999/xlink">
    <!-- Generator: Sketch 52.3 (67297) - http://www.bohemiancoding.com/sketch -->
    <title>new</title>
    <desc>Created with Sketch.</desc>
    <defs>
        <linearGradient x1="50%" y1="-39.6471818%" x2="50%" y2="100%" id="linearGradient-1">
            <stop stop-color="#FFFFFF" offset="0%"></stop>
            <stop stop-color="#D9FFE7" offset="100%"></stop>
        </linearGradient>
        <path d="M42.305744,508 C4.11197464,454.55157 -46.1731324,311.398944 89.9134338,319.520408 C226,327.641873 205.097786,-78.0261271 382.969735,14 C560.841683,106.026127 561.760108,358.591878 688.5,153.059091 C815.239892,-52.4736963 917,116.436848 963,217.761918 C1009,319.086989 1161.45845,433.394254 1197.36372,279.9274 C1233.269,126.460547 1358,346.821181 1242,508 L42.305744,508 Z" id="path-2"></path>
        <path d="M0,90 L230,90 L230,408 L0,408 L0,90 Z M0,0 L230,0 L230,62 L0,62 L0,0 Z M258,90 L488,90 L488,408 L258,408 L258,90 Z M258,0 L488,0 L488,62 L258,62 L258,0 Z M516,90 L746,90 L746,408 L516,408 L516,90 Z M516,0 L746,0 L746,62 L516,62 L516,0 Z" id="path-4"></path>
        <path d="M1.42401585,30.5904935 C9.50092604,38.7554636 12.3493296,75.7806662 4.79513048,89.0936367 C-2.75906863,102.406607 76.4655643,94.8026635 66.8118881,81.6329624 C57.1582118,68.4632614 48.1322418,23.0084443 51.2615385,5.3643326 C54.3908352,-12.2797791 -6.65289434,22.4255234 1.42401585,30.5904935 Z" id="path-6"></path>
        <path d="M12.1491969,3.07720958 C13.6342504,12.153196 24.8176286,28.2177363 23.3056998,35.7244564 C21.7937711,43.2311764 21.9597868,55.4238329 31.4548934,51.4633318 C40.95,47.5028307 50.3514023,40.2710968 52.3098465,28.9341012 C54.2682908,17.5971055 70.6319244,-1.65730837 72.30752,7.51998183 C73.4245837,13.6381753 77.3220771,55.9738634 84,134.527046 L14.2282719,134.527046 L0.565778962,15.0459306 C7.29802185,1.01612567 11.1591612,-2.97344802 12.1491969,3.07720958 Z" id="path-8"></path>
        <path d="M28.9564767,160.841414 C15.9706073,153.699456 -4.89426067,126.77665 1.37850016,113.010008 C7.65126099,99.2433653 16.5435717,94.6233517 19.1725279,87.6028991 C21.8014841,80.5824465 30.1996231,55.8083171 26.0005536,40.3828207 C21.8014841,24.9573242 39.6259658,15.5857642 48.3989705,17.3817773 C53.9226745,12.4199578 92.3659717,3.98258005 112.821782,0.909467232 C133.277593,-2.16364558 170.984298,4.50881559 180.763097,6.90898056 C190.541895,9.30914553 204.785271,15.6643189 207.572347,21.1055662 C210.359423,26.5468135 222.5831,137.384394 188.465484,167.154768 L138.489881,168.529287 C132.887823,148.234313 130.465048,135.891195 131.221556,131.499934 C132.356318,124.913043 124.653903,113.051663 124.653903,107.139126 C124.653903,101.226588 123.953231,81.5701478 131.221556,73.1035636 C138.489881,64.6369795 145.887483,12.4199578 131.221556,11.5465839 C116.555629,10.6732099 79.6587363,8.25189107 88.4306711,33.066573 C97.2026059,57.8812549 84.5397448,53.394792 95.1714226,75.6730661 C105.8031,97.9513402 114.642593,106.188804 108.321021,131.499934 C104.106639,148.374021 103.669254,160.717139 107.008865,168.529287 L46.3314447,168.529287 C57.6303259,143.329966 63.2797664,125.482483 63.2797664,114.986836 C63.2797664,104.491189 61.9365343,96.0926805 59.25007,89.7913109 C59.1849526,105.565176 57.9096157,114.478007 55.4240594,116.529804 C49.8514851,121.129899 57.405385,135.374661 52.4752475,147.525512 C48.1487101,158.188726 35.0260265,164.17954 28.9564767,160.841414 Z" id="path-10"></path>
        <path d="M12.7902903,17.5775332 C5.62941271,29.172492 -0.467656054,48.5561351 1.31131886,66.2674927 C2.62644968,79.3608489 8.81038782,91.0159792 14.7284052,100.657031 C19.9713167,109.198266 25.2321041,115.795019 35.1783003,117.104331 C43.7266074,118.229625 52.1166452,115.938664 57.7490324,109.046003 C61.8990015,103.967459 63.8345514,95.5593861 66.9098835,88.439899 C77.4140318,64.1224768 80.9458485,32.0687494 71.6756757,19.9490092 C56.007895,-0.534905567 29.9348209,-10.1830483 12.7902903,17.5775332 Z" id="path-12"></path>
        <linearGradient x1="0%" y1="100%" x2="100%" y2="0%" id="linearGradient-14">
            <stop stop-color="#F9AF00" offset="0%"></stop>
            <stop stop-color="#FF7D00" offset="100%"></stop>
        </linearGradient>
        <path d="M19.0759287,68.6857481 C15.8852183,72.1025366 11.4240382,100.911012 12.0177796,105.422817 C12.6115209,109.934623 13.7359025,111.509294 13.7199108,113.769891 C13.6929277,117.584235 11.941195,122.194959 12.0177796,122.582564 C12.175369,123.380146 12.5155888,117.323191 12.0177796,113.235573 C11.8394174,111.771003 11.1215931,110.416589 10.8539186,109.920585 C8.84685421,106.201474 3.67700683,97.9568359 1.57961748,87.5956045 C0.794951414,83.7193063 1.7744022,79.1683098 1.57961748,74.9949239 C1.38920572,70.9152314 0.0140833399,66.7826027 0.697364329,62.744466 C1.36927923,58.773502 4.082657,54.8936907 5.89334359,51.2714672 C7.56379864,47.9297726 9.13967034,43.5442621 12.0177796,40.7497088 C14.4709091,38.3677974 18.547847,37.48559 22.0322899,35.6628153 C24.9250938,34.1495376 27.695351,32.8545831 31.388351,31.8205132 C16.7920792,3.68659168 45.2703104,0.375608443 57.1980198,0.234369287 C69.1257292,0.0931301311 100.035986,6.39275422 80.5738068,31.2380952 C84.0006679,32.721588 87.6510252,33.6936868 90.3513067,35.6628153 C93.4296841,37.9076629 96.5900251,40.7034022 98.7241051,43.5794051 C101.003904,46.6517861 101.411269,49.7302383 102.613411,53.5229099 C103.757135,57.1312783 105.727691,61.2378237 105.895951,65.4981792 C106.014119,68.4901938 105.695378,73.7872503 104.774095,78.5929252 C104.131688,81.9439039 102.802063,83.3627843 101.654253,87.5956045 C101.324831,88.8104232 101.4016,92.6811446 100.884095,94.4075809 C100.025383,97.2723067 97.731254,102.912654 94.0017078,111.328624 C83.3977048,84.8475902 77.375982,69.1138637 75.9365394,64.1274444 C75.503119,64.3201507 73.2884583,66.4704717 71.1777301,65.4981792 C70.592615,65.2286499 69.8841326,63.8769357 69.052283,61.4430368 C69.5696418,64.4925467 69.5696418,66.0802404 69.052283,66.2061179 C68.77285,66.2741061 68.4186329,66.843552 67.9152516,66.2061179 C67.7364811,65.9797399 67.4241527,65.255358 66.9782665,64.0329721 C66.2762024,65.8170387 65.6398826,66.7865776 65.0693069,66.9415887 C59.4035346,68.4808367 51.2512854,69.5211276 44.0792079,69.8485695 C30.2281396,70.4809413 23.16131,69.2161976 19.0759287,68.6857481 Z" id="path-15"></path>
        <path d="M37.7605531,234.010648 C54.1272745,237.468422 75.3167324,206.872543 75.1305884,190.513393 C75.0335909,181.988821 71.8878482,173.489009 65.4444444,172.040558 C64.2443725,171.770786 62.1551137,172.813371 59.1766681,175.168312 C53.5817081,158.239331 49.3384947,145.192481 46.4470276,136.027762 C35.8293852,102.374356 33.8488248,83.1457216 33.8488248,80.2974819 C33.8488248,76.5507572 33.8810769,62.891576 34.399894,51.6631742 C34.7143437,44.857757 36.1465187,38.83771 35.1682692,36.7669222 C33.939437,34.1656931 28.4547127,26.4641882 23.8314012,18.5841837 C18.7016027,9.84091915 14.3758027,1.89132318 13.3696722,0.987345271 C11.1022487,-1.04986625 7.74478964,1.82374964 10.2089421,6.09461988 C12.6730946,10.3654901 16.7286245,16.1694986 18.0299478,18.5841837 C16.6375393,18.5841837 5.270095,-1.02919455 0.802905133,3.10664708 C-0.31674563,4.14324915 -0.0118840639,6.13670058 1.71748983,9.08700138 C-0.0372265214,10.6780735 -0.342088087,12.3495477 0.802905133,14.101424 C2.52039496,16.7292385 7.20339656,23.0662788 6.3568607,23.6306898 C3.98366894,25.2129684 12.5162151,37.8235024 14.0550508,41.4217138 C15.5938864,45.0199252 9.04984601,78.4033456 10.2089421,81.9216175 C11.3680382,85.4398894 14.7404293,86.2531639 14.0550508,89.0176293 C13.3696722,91.7820947 21.3938317,230.552875 37.7605531,234.010648 Z" id="path-17"></path>
        <path d="M84.1958478,52.3869881 C87.9529412,58.1386046 69.3732214,80.1943649 77.4823529,91.2512859 C85.5914845,102.308207 70.1511377,109.950536 48.183067,103.419401 C26.2149963,96.8882675 -9.09767564,50.0197989 3.56567475,42.0937378 C16.2290251,34.1676767 37.7815535,24.4806153 35.4150566,6.40309692 C33.0485598,-11.6744215 48.1046351,15.905896 54.2436788,15.905896 C60.3827225,15.905896 80.4387543,46.6353716 84.1958478,52.3869881 Z" id="path-19"></path>
        <path d="M253.950617,265.40599 C249.951499,271.5413 226.444164,284.193148 219.263668,284.193148 C212.083173,284.193148 188.888889,216.381717 188.888889,204.069935 C188.888889,191.758153 182.821869,204.881154 182.821869,214.183613 C182.821869,218.378744 182.029901,247.049828 186.790123,276.295651 C192.585416,311.900734 202.495188,349.108797 203.72151,353.528949 L0.695615215,353.528949 C6.52573576,301.733875 13.6072077,268.922672 21.9400312,255.095337 C34.4392663,234.354336 18.9123009,166.803115 18.5886238,149.559236 C18.2649466,132.315357 4.92495928,34.2367425 50.2899088,19.4316471 C95.6548583,4.62655175 121.728395,2.88792943 123.403526,0.890198377 C123.403526,33.5596519 146.91358,40.8861918 152.160494,46.7495274 C157.407407,52.6128631 154.277057,63.9282971 154.277057,63.9282971 C154.277057,63.9282971 158.746332,60.8880782 158.746332,57.6574205 C158.746332,54.4267628 155.378522,53.8996555 159.487311,51.8388359 C162.000137,50.5784934 173.616243,42.6933551 181.493006,34.9796915 C186.495747,30.0805389 189.130633,24.5299682 189.726631,23.1036607 C191.261023,19.4316471 235.386119,46.3172566 241.52022,54.5513435 C247.654321,62.7854305 252.723294,95.2903773 244.964727,117.557451 C242.356422,125.043278 239.403141,144.715159 241.52022,166.01856 C245.682718,207.904266 256.601484,261.339122 253.950617,265.40599 Z" id="path-21"></path>
        <path d="M31.777896,42.4456031 C31.9253554,43.913643 31.056941,48.8938574 25.4178598,48.8938574 C19.4816071,48.8938574 21.1115642,43.1574222 22.4333151,44.4983099 C26.7990985,48.7971586 31.4574334,46.7444519 29.9654665,42.7118256 C28.8654392,40.2061157 21.689069,41.7059625 20.2826683,36.9241836 C19.2280777,33.3384698 23.4759547,30.3296403 25.9886063,29.2251609 C29.9834884,27.4692428 32.434896,29.2304621 33.0208772,30.2590337 C33.3499308,30.8367076 34.1409501,32.8620063 32.725042,36.3701204 C32.3351642,37.3360559 32.0524255,37.8753811 31.16576,37.8753811 C30.370808,37.8753811 29.8930732,36.5405465 30.2157885,35.5044179 C32.0582292,29.588571 26.9828309,30.0208959 24.8286713,31.9155084 C23.6470106,32.9548327 22.68967,34.8141042 22.9261701,36.0368629 C23.5838956,39.4378264 31.4173803,38.8566936 31.777896,42.4456031 L31.777896,42.4456031 Z" id="path-23"></path>
        <path d="M31.777896,42.4456031 C31.9253554,43.913643 31.056941,48.8938574 25.4178598,48.8938574 C19.4816071,48.8938574 21.1115642,43.1574222 22.4333151,44.4983099 C26.7990985,48.7971586 31.4574334,46.7444519 29.9654665,42.7118256 C28.8654392,40.2061157 21.689069,41.7059625 20.2826683,36.9241836 C19.2280777,33.3384698 23.4759547,30.3296403 25.9886063,29.2251609 C29.9834884,27.4692428 32.434896,29.2304621 33.0208772,30.2590337 C33.3499308,30.8367076 34.1409501,32.8620063 32.725042,36.3701204 C32.3351642,37.3360559 32.0524255,37.8753811 31.16576,37.8753811 C30.370808,37.8753811 29.8930732,36.5405465 30.2157885,35.5044179 C32.0582292,29.588571 26.9828309,30.0208959 24.8286713,31.9155084 C23.6470106,32.9548327 22.68967,34.8141042 22.9261701,36.0368629 C23.5838956,39.4378264 31.4173803,38.8566936 31.777896,42.4456031 L31.777896,42.4456031 Z" id="path-25"></path>
    </defs>
    <g id="new" stroke="none" stroke-width="1" fill="none" fill-rule="evenodd">
        <g id="Group-12" transform="translate(11.000000, 6.000000)">
            <mask id="mask-3" fill="white">
                <use xlink:href="#path-2"></use>
            </mask>
            <use id="Path-264" fill="url(#linearGradient-1)" fill-rule="nonzero" xlink:href="#path-2"></use>
            <g id="Group-11" mask="url(#mask-3)">
                <g transform="translate(270.000000, 24.000000)">
                    <mask id="mask-5" fill="white">
                        <use xlink:href="#path-4"></use>
                    </mask>
                    <use id="Combined-Shape" stroke="none" fill="#CCF2FF" fill-rule="nonzero" xlink:href="#path-4"></use>
                    <path d="M143.828003,357.187804 L-106,357.187804 L-84.3530968,353.423204 C-71.6995968,351.227104 -59.4643968,346.312104 -49.2160968,338.469004 C-43.7781968,334.286004 -35.7259968,331.148804 -25.1639968,334.286004 C-23.1769968,334.808904 -21.0854968,334.181504 -19.8306968,332.612804 C-14.8110968,326.129204 -4.66699681,317.031264 9.34600319,323.305734 L16.4570032,326.129204 C19.9080032,327.384104 23.6720032,325.920104 25.2410032,322.573704 C27.5420032,317.658704 32.9790032,312.325404 46.1560032,316.508384 C46.1560032,316.508384 56.9270032,320.168494 60.1690032,328.639004 C60.7960032,330.207604 62.3650032,331.044204 63.9330032,330.730504 C67.4890032,330.103104 72.9270032,329.998504 72.8220032,335.854704 C72.8220032,336.900404 74.0770032,337.632404 75.0180032,337.109504 C79.4100032,334.704304 89.0310032,330.521404 96.5610032,337.318704 C116.848003,355.619204 143.828003,357.187804 143.828003,357.187804 Z M373.062987,245.582197 L47,245.686797 L67.7056872,242.131197 C78.8951872,240.248897 89.7708872,236.484197 99.7054872,231.046297 L101.483287,230.105197 C108.175987,226.549597 115.496287,224.458097 122.920987,223.412397 C128.568087,222.680397 133.901387,220.065997 138.188887,215.987597 C143.208487,211.177197 150.214987,205.739317 158.894987,202.392937 C169.037987,198.419107 180.436987,199.46485 189.848987,205.007297 C197.377987,209.399427 209.612987,213.896097 223.521987,208.039957 C243.390987,199.569421 258.867987,217.660797 262.422987,222.262097 C263.259987,223.307797 264.305987,224.353597 265.560987,225.085597 C269.115987,227.177097 276.749987,229.895997 290.344987,226.758797 C300.906987,224.248997 307.494987,226.026797 311.363987,228.222797 C314.605987,230.105197 318.265987,231.150897 321.925987,231.255497 C325.899987,231.360097 329.873987,231.569197 333.847987,231.987497 C347.860987,233.346997 361.245987,238.052797 373.062987,245.582197 Z M115.417,157.888402 C121.901,166.045202 135.6,166.463502 135.6,166.463502 L-61,166.463502 C-61,166.463502 -53.05232,164.685802 -45.9413,163.012602 C-40.608,161.862302 -35.7976,158.725002 -32.4512,154.332902 C-30.6734,151.927702 -27.7453,149.731602 -23.2486,149.313302 C-20.216,149.104202 -17.6016,147.953902 -15.7193,146.176102 C-12.3729,143.038862 -3.9023,134.777482 11.3655,140.529072 C30.921,147.849302 39.705,143.666312 43.261,140.319932 C46.189,137.496422 49.954,135.509502 53.927,134.777482 L54.032,134.777482 C61.457,133.418014 72.751,132.895142 75.26,141.470252 L75.26,141.574822 C75.783,143.457162 77.457,144.712102 79.339,144.712102 C84.045,144.712102 90.319,145.862402 95.13,150.568202 C97.639,153.078002 100.986,154.646602 104.541,154.960402 C104.646,154.960402 104.855,154.960402 104.96,154.960402 C106.215,155.064902 107.365,155.064902 108.515,155.064902 C109.352,155.064902 113.326,155.274102 115.417,157.888402 Z M694,177 L534,177 L547.863556,174.590673 C555.967371,173.185179 563.80329,170.039602 570.366718,165.020054 C573.84937,162.342954 579.006326,160.33516 585.77066,162.342954 C587.043215,162.677607 588.382697,162.276074 589.186322,161.272113 C592.401077,157.122639 598.897771,151.3 607.872265,155.315631 L612.426438,157.122639 C614.636599,157.925769 617.047217,156.988816 618.052069,154.847136 C619.525723,151.701558 623.007798,148.288271 631.446884,150.965359 C631.446884,150.965359 638.34507,153.307812 640.421379,158.7289 C640.822935,159.732796 641.827786,160.268217 642.831997,160.06745 C645.109404,159.665917 648.59212,159.598973 648.524874,163.346914 C648.524874,164.016158 649.328627,164.484634 649.931281,164.149981 C652.744096,162.610664 658.905776,159.933627 663.728293,164.283868 C676.720912,175.996103 694,177 694,177 Z M840,105.933604 L632,106 L645.208439,103.743059 C652.346372,102.548257 659.284129,100.158588 665.621545,96.7068448 L666.755628,96.1094753 C671.024992,93.8525344 675.69471,92.5249408 680.431027,91.8611757 C684.033389,91.3965338 687.435573,89.737026 690.170627,87.1482343 C693.372698,84.0948008 697.84224,80.6430701 703.379329,78.518933 C709.849687,75.9965179 717.121263,76.6603102 723.125306,80.1784155 C727.928157,82.9663494 735.733029,85.8206407 744.605769,82.1034167 C757.280473,76.7266874 767.153461,88.2103092 769.421244,91.1310151 C769.955178,91.7947802 770.622435,92.4586087 771.423017,92.9232506 C773.690799,94.2508442 778.560632,95.9766842 787.233066,93.9853255 C793.970709,92.3922132 798.173284,93.5206836 800.641371,94.9146093 C802.709487,96.1094753 805.044251,96.7732403 807.379014,96.8396359 C809.914083,96.9060314 812.449151,97.0387591 814.98422,97.3042778 C823.923303,98.1672295 832.461775,101.154267 840,105.933604 Z M676.064812,50.4529367 C680.220376,55.72941 689,56 689,56 L563,56 C563,56 568.09363,54.8500409 572.651049,53.7676807 C576.069135,53.0235743 579.152098,50.9941167 581.296789,48.1529537 C582.436173,46.5970772 584.312778,45.1764634 587.194692,44.9058733 C589.138271,44.7706107 590.813827,44.0265042 592.020184,42.8764804 C594.164876,40.8470616 599.593643,35.5029376 609.378703,39.2235279 C621.911729,43.9588406 627.541353,41.2529467 629.820376,39.0882394 C631.696918,37.2617663 634.109888,35.9764669 636.656165,35.5029376 L636.723459,35.5029376 C641.482106,34.6235245 648.720376,34.2852889 650.328383,39.8323587 L650.328383,39.900003 C650.663571,41.1176517 651.736429,41.9294477 652.942594,41.9294477 C655.958647,41.9294477 659.979624,42.6735541 663.06297,45.7176434 C664.670977,47.3411836 666.816053,48.3558801 669.094435,48.5588711 C669.161729,48.5588711 669.295677,48.5588711 669.36297,48.5588711 C670.167294,48.6264701 670.904323,48.6264701 671.641353,48.6264701 C672.177782,48.6264701 674.7247,48.7617975 676.064812,50.4529367 Z M358,127 L198,127 L211.863556,124.590673 C219.967371,123.185179 227.80329,120.039602 234.366718,115.020054 C237.84937,112.342954 243.006326,110.33516 249.77066,112.342954 C251.043215,112.677607 252.382697,112.276074 253.186322,111.272113 C256.401077,107.122639 262.897771,101.3 271.872265,105.315631 L276.426438,107.122639 C278.636599,107.925769 281.047217,106.988816 282.052069,104.847136 C283.525723,101.701558 287.007798,98.2882708 295.446884,100.965359 C295.446884,100.965359 302.34507,103.307812 304.421379,108.7289 C304.822935,109.732796 305.827786,110.268217 306.831997,110.06745 C309.109404,109.665917 312.59212,109.598973 312.524874,113.346914 C312.524874,114.016158 313.328627,114.484634 313.931281,114.149981 C316.744096,112.610664 322.905776,109.933627 327.728293,114.283868 C340.720912,125.996103 358,127 358,127 Z M504,55.9336045 L296,56 L309.208439,53.7430591 C316.346372,52.5482566 323.284129,50.1585881 329.621545,46.7068448 L330.755628,46.1094753 C335.024992,43.8525344 339.69471,42.5249408 344.431027,41.8611757 C348.033389,41.3965338 351.435573,39.737026 354.170627,37.1482343 C357.372698,34.0948008 361.84224,30.6430701 367.379329,28.518933 C373.849687,25.9965179 381.121263,26.6603102 387.125306,30.1784155 C391.928157,32.9663494 399.733029,35.8206407 408.605769,32.1034167 C421.280473,26.7266874 431.153461,38.2103092 433.421244,41.1310151 C433.955178,41.7947802 434.622435,42.4586087 435.423017,42.9232506 C437.690799,44.2508442 442.560632,45.9766842 451.233066,43.9853255 C457.970709,42.3922132 462.173284,43.5206836 464.641371,44.9146093 C466.709487,46.1094753 469.044251,46.7732403 471.379014,46.8396359 C473.914083,46.9060314 476.449151,47.0387591 478.98422,47.3042778 C487.923303,48.1672295 496.461775,51.1542675 504,55.9336045 Z M340.064812,0.452936664 C344.220376,5.72940997 353,6 353,6 L227,6 C227,6 232.09363,4.85004087 236.651049,3.76768074 C240.069135,3.02357432 243.152098,0.99411673 245.296789,-1.84704627 C246.436173,-3.40292279 248.312778,-4.82353664 251.194692,-5.09412667 C253.138271,-5.22938935 254.813827,-5.97349576 256.020184,-7.12351958 C258.164876,-9.15293836 263.593643,-14.4970624 273.378703,-10.7764721 C285.911729,-6.04115944 291.541353,-8.74705331 293.820376,-10.9117606 C295.696918,-12.7382337 298.109888,-14.0235331 300.656165,-14.4970624 L300.723459,-14.4970624 C305.482106,-15.3764755 312.720376,-15.7147111 314.328383,-10.1676413 L314.328383,-10.099997 C314.663571,-8.88234832 315.736429,-8.07055235 316.942594,-8.07055235 C319.958647,-8.07055235 323.979624,-7.32644593 327.06297,-4.28235657 C328.670977,-2.65881637 330.816053,-1.64411992 333.094435,-1.44112888 C333.161729,-1.44112888 333.295677,-1.44112888 333.36297,-1.44112888 C334.167294,-1.37352989 334.904323,-1.37352989 335.641353,-1.37352989 C336.177782,-1.37352989 338.7247,-1.23820253 340.064812,0.452936664 Z" id="Combined-Shape" stroke="none" fill="#EAF9FF" fill-rule="nonzero" mask="url(#mask-5)"></path>
                </g>
            </g>
        </g>
        <g id="Group-10" transform="translate(331.000000, 1.000000)">
            <g id="Path-229" transform="translate(451.500000, 309.000000)">
                <mask id="mask-7" fill="white">
                    <use xlink:href="#path-6"></use>
                </mask>
                <use id="Path-227" fill="#FFE2CF" fill-rule="nonzero" xlink:href="#path-6"></use>
                <path d="M3.40984747,39.1619046 C8.89230769,42.5244297 18.7905458,63.7319439 25.1076923,59.7767969 C36.3836585,52.8664667 46.9133634,33.5446281 47.7145365,23.3079256 C48.5434685,12.716543 51.6595978,2.95206721 57.1582118,-1.85048802 C64.3669402,-8.14667758 54.5552286,-10.0258553 27.7230769,-7.4880213 C7.85928381,21.3702459 -0.245126013,36.9202212 3.40984747,39.1619046 Z" id="Path-228" fill="#FFCCAA" fill-rule="nonzero" mask="url(#mask-7)"></path>
                <path d="M12.0352098,53.7815774 C14.0990032,55.0146895 19.9504694,65.0890527 19.9504694,69.0905425 C19.9504694,73.0920323 18.1288487,84.1847338 22.7787659,85.0137189 C25.8787107,85.5663756 33.2806605,81.750362 44.9846154,73.5656781 C36.146567,87.3395138 28.2581767,93.5048025 21.3194443,92.0615441 C10.9113458,89.8966564 16.9493641,72.6187949 16.6393763,69.7793704 C16.3293886,66.9399459 9.97141629,52.5484652 12.0352098,53.7815774 Z" id="Path-245" fill="#FFCCAA" fill-rule="nonzero" mask="url(#mask-7)"></path>
            </g>
            <g id="Group-4" transform="translate(446.500000, 346.000000)">
                <mask id="mask-9" fill="white">
                    <use xlink:href="#path-8"></use>
                </mask>
                <use id="Path-242" fill="#FFFFFF" fill-rule="nonzero" xlink:href="#path-8"></use>
                <path d="M8.67238367,16.3949806 C13.2103955,23.7930261 16.0180423,29.1925111 17.095324,32.5934357 C19.970937,41.6716025 18.1900237,50.0219638 21.9505505,51.0552888 C27.8242684,52.6692805 31.5324183,59.9790384 33.075,72.9845625 C29.0718827,63.6493613 23.745324,59.6097057 17.095324,60.8655957 C10.445324,62.1214858 7.63767724,47.2979474 8.67238367,16.3949806 Z" id="Path-243" fill="#F0F0F0" fill-rule="nonzero" mask="url(#mask-9)"></path>
                <path d="M21.6394231,115.392517 C22.8678357,114.977261 24.5594915,130.130167 26.3710632,132.438782 C27.7675246,134.218392 25.9103437,123.547146 27.8382699,120.682702 C29.1194323,118.779197 32.3290757,123.858073 33.075,122.753027 C38.685996,114.440643 36.7645193,104.963947 38.8572597,94.9256205 C40.2524199,88.2334025 42.021532,82.8393335 44.1645959,78.7434133 C38.4517783,84.8768024 34.5039964,88.3180635 32.3212501,89.0671967 C25.3855377,91.4475797 18.1557335,89.0380167 16.8754736,91.7099725 C7.58182561,111.106204 18.5725249,116.429262 21.6394231,115.392517 Z" id="Path-244" fill="#F0F0F0" fill-rule="nonzero" mask="url(#mask-9)"></path>
            </g>
            <g id="Group-5" transform="translate(366.500000, 311.000000)">
                <mask id="mask-11" fill="white">
                    <use xlink:href="#path-10"></use>
                </mask>
                <use id="Path-240" fill="#007193" fill-rule="nonzero" xlink:href="#path-10"></use>
                <path d="M82.2419943,26.3335471 C74.6996911,35.3135186 61.7845667,81.4502689 71.421768,95.2169113 C81.0589692,108.983554 60.9966336,169.593823 55.4240594,176.574336 C51.7090099,181.228011 47.6014655,177.265617 43.1014263,164.687152 L54.2952574,147.629505 L61.4754987,110.408244 C58.0740677,95.952353 57.3322581,85.9728459 59.25007,80.4697225 C62.1267879,72.2150374 68.6221171,14.9818713 74.6996911,16.1818243 C80.7772652,17.3817773 89.7842976,17.3535756 82.2419943,26.3335471 Z" id="Path-246" fill-opacity="0.12" fill="#000000" fill-rule="nonzero" mask="url(#mask-11)"></path>
            </g>
            <g id="Group-2" transform="translate(431.500000, 235.000000)">
                <mask id="mask-13" fill="white">
                    <use xlink:href="#path-12"></use>
                </mask>
                <use id="Path-226" fill="#FFE2CF" fill-rule="nonzero" xlink:href="#path-12"></use>
                <path d="M11.448673,21.9968589 C12.2548308,25.0669754 6.37999594,38.3326699 6.37999594,39.3827969 C6.37999594,40.432924 9.67212732,36.648056 9.67212732,42.4827901 C9.67212732,48.3175241 3.69657866,55.2212887 4.29289361,57.7850569 C4.51900651,58.757196 3.28822967,65.9455862 4.88920856,72.4491618 C7.5104021,83.0971037 13.2916946,94.930905 12.6413029,97.0407622 C11.5936634,100.439283 14.1320903,103.755284 12.6413029,103.25 C11.1505155,102.744716 -11.9532915,52.8348284 -10.8207499,51.4314869 C-9.68820836,50.0281453 10.6425152,18.9267424 11.448673,21.9968589 Z" id="Path-234" fill="#FFCCAA" fill-rule="nonzero" mask="url(#mask-13)"></path>
                <path d="M66.7692034,17.5775332 C64.6595781,19.1285249 63.461847,20.2467763 63.17601,20.9322875 C62.8901731,21.6177988 63.1299486,22.7969738 63.8953366,24.4698127 C61.326577,22.1114626 59.8472532,20.9322875 59.457365,20.9322875 C57.8687223,20.9322875 55.5060214,22.4864559 55.2456874,23.137724 C54.5316071,24.9241133 55.6530541,27.8299328 55.2456874,28.3457183 C53.7640444,30.2216942 53.7640444,31.1972985 53.7640444,31.7170078 C53.7640444,33.2960354 57.5419846,40.3081396 59.8428671,42.4827901 C60.8950787,43.4772747 59.2807465,44.626726 59.457365,46.5026309 C59.8428671,50.5971344 66.2009214,57.4497852 67.2731278,64.0149842 C69.169187,75.6246935 66.9475137,90.2838428 60.6081081,107.992432 L87.3434564,63.4628659 L77.6168788,14.4341753 L66.7692034,17.5775332 Z" id="Path-239" fill="#FFCCAA" fill-rule="nonzero" mask="url(#mask-13)"></path>
            </g>
            <g id="Group" transform="translate(422.500000, 190.000000)">
                <mask id="mask-16" fill="white">
                    <use xlink:href="#path-15"></use>
                </mask>
                <use id="Path-230" fill="url(#linearGradient-14)" fill-rule="nonzero" xlink:href="#path-15"></use>
                <path d="M26.618232,24.6508734 C30.6217065,25.5293228 43.5346633,28.9870819 55.673371,28.3261602 C69.4040049,27.5785621 83.2721898,23.9645898 86.7274431,24.6508734 C93.2373487,25.9438731 90.7661413,34.4685019 84.7895259,35.7362678 C78.8129105,37.0040336 70.1292544,31.2380952 55.673371,31.2380952 C41.2174875,31.2380952 32.8069087,33.0391484 27.4532288,33.8892044 C22.0995489,34.7392605 18.0862488,22.7787707 26.618232,24.6508734 Z" id="Path-231" fill="#EF8100" fill-rule="nonzero" mask="url(#mask-16)"></path>
                <path d="M49.4737866,0.767343248 C52.7160548,0.767343248 55.0396677,2.30907638 56.4446252,5.39254264 C58.6010198,2.30907638 61.1337067,0.767343248 64.0426859,0.767343248 C66.3185213,0.767343248 60.6563889,-0.106896846 55.673371,-0.106896846 C51.1024278,-0.106896846 47.1469678,0.767343248 49.4737866,0.767343248 Z" id="Path-247" fill="#EF8100" fill-rule="nonzero" mask="url(#mask-16)"></path>
            </g>
            <path d="M435.5,257.784738 C434.103502,253.852605 432.813442,252.344064 431.629819,253.259115 C429.854384,254.631692 417.401919,294.495298 418.578221,296.87123 C419.362422,298.455185 425.003015,285.426354 435.5,257.784738 Z" id="Path-233" fill="#FFCCAA" fill-rule="nonzero"></path>
            <path d="M369.471152,443.260308 C366.449228,456.818167 370.116855,487.603363 385.619574,485.934789 C401.122292,484.266215 412.241473,474.413349 412.241473,464.630154 C412.241473,454.846959 434.388251,353.264341 437.885192,345.548954 C440.216486,340.405362 442.421422,336.052587 444.5,332.490628 C435.891851,314.806993 432.06589,302.807193 433.022117,296.491229 C434.456458,287.017283 440.086889,282.53001 439.088601,279.214817 C438.090314,275.899624 434.862046,277.948881 434.862046,277.948881 C434.862046,277.948881 441.69266,261.256657 441.382133,259.00348 C441.071606,256.750303 440.177218,252.486083 438.090314,253.05103 C436.003409,253.615977 418.071245,292.338793 418.071245,298.318503 C418.071245,304.298213 425.233321,326.542442 419.063473,337.736383 C416.164854,342.99534 409.412053,366.449096 398.82832,388.237619 C386.884075,412.827001 371.073365,436.071985 369.471152,443.260308 Z" id="Path-232" fill="#FFE2CF" fill-rule="nonzero"></path>
            <polygon id="Rectangle" fill="#004054" fill-rule="nonzero" points="42.5228385 478 620.336868 478 644.5 514 0.5 514"></polygon>
            <g id="Group-3" transform="translate(487.500000, 256.000000)">
                <mask id="mask-18" fill="white">
                    <use xlink:href="#path-17"></use>
                </mask>
                <use id="Path-235" fill="#FFE2CF" fill-rule="nonzero" xlink:href="#path-17"></use>
                <path d="M0.821746909,8.75107944 C1.33153255,7.85547776 1.9921276,8.12501245 3.00569987,7.88565419 C4.28859568,7.58269434 5.23042404,8.4444722 6.02509483,9.88386095 C6.588665,10.9046567 7.68305451,12.1425826 12.7317558,17.6339725 C12.8563664,17.7695287 12.8563664,17.7695287 12.9809467,17.9051421 C17.308825,22.6172072 19.2350839,24.9064264 19.7071934,26.1750717 C20.0791562,27.1746044 20.8093293,28.5799323 23.1934845,33.0007245 C23.2184684,33.0470517 23.2184684,33.0470517 23.2434523,33.0933832 C25.994586,38.1953948 26.9166667,40.0473087 26.9166667,40.8390139 C25.4982456,39.0667577 23.9637184,36.6500697 22.3130852,33.5889499 C22.2881179,33.5426491 22.2881179,33.5426491 22.2631481,33.496348 C19.8340198,28.9921651 19.1153877,27.6090495 18.7171841,26.5390029 C18.3190675,25.4691903 16.352626,23.132217 12.2013616,18.6124439 C12.0769754,18.4770417 12.0769754,18.4770417 11.9525247,18.3416594 C6.75014255,12.6831134 5.72848346,11.527457 5.0996991,10.3885387 C4.52862446,9.35415005 3.81565861,8.55980515 3.00569987,8.75107944 C2.52919434,8.86360771 1.80121002,8.86360771 0.821746909,8.75107944 Z" id="Path-236" fill="#FFCCAA" fill-rule="nonzero" mask="url(#mask-18)"></path>
                <path d="M6.52899371,23.6306898 C6.01518801,22.3741115 6.01518801,21.510008 6.52899371,21.0383792 C7.4508198,20.1922234 8.71383961,20.2261394 9.8607523,21.2935974 C11.8967744,23.1885699 19.5189464,32.9968788 20.4495789,34.8480885 C21.3394666,36.6182486 23.1307856,44.0834681 23.1307856,46.0536625 C21.2585326,39.9794383 20.0500465,36.4005497 19.5053272,35.3169967 C18.633574,33.5829095 11.0878432,23.8729661 9.1392477,22.0593635 C8.38849483,21.3606206 7.7523345,21.3435377 7.24515603,21.8090832 C6.77702445,22.2387871 6.35358839,23.1828267 6.52899371,23.6306898 Z" id="Path-237" fill="#FFCCAA" fill-rule="nonzero" mask="url(#mask-18)"></path>
                <path d="M16.9159777,17.1897926 C21.2793988,21.8084508 24.2571451,25.0815721 25.8492166,27.0091563 C31.8390922,34.261337 34.1570539,40.160074 36.1775688,40.160074 C40.4166815,40.160074 21.6877729,-0.232469206 15.5938864,-1.04986625 C9.5,-1.8672633 7.35487278,2.85444669 8.42743639,4.47453329 C9.1424788,5.55459102 11.9719926,9.79301078 16.9159777,17.1897926 Z" id="Path-238" fill="#FFCCAA" fill-rule="nonzero" mask="url(#mask-18)"></path>
                <path d="M59.3521776,175.048298 C55.3096343,178.841236 52.1212757,180.737705 49.7871017,180.737705 C50.9221221,179.352073 54.1966455,174.695524 53.5938864,168.549996 C52.3333319,155.697806 45.3604271,136.992979 45.2858441,132.701115 C45.2034098,127.957447 46.0024032,129.4364 45.2858441,127.74806 C44.1692617,125.117194 48.8580395,140.88394 59.3521776,175.048298 Z" id="Path-2" fill="#FFCCAA" fill-rule="nonzero" mask="url(#mask-18)"></path>
            </g>
            <path d="M547.818759,429.186304 C548.890809,431.166262 551.853713,438.251803 553.712195,446.769553 C556.184757,458.101737 557.335731,471.383702 555.62969,472.865398 C552.641315,475.460801 575.063163,439.780663 566.564556,429.884059 C558.06595,419.987456 545.320431,424.572171 547.818759,429.186304 Z" id="Path-241" fill="#007193" fill-rule="nonzero"></path>
            <g id="Group-8" transform="translate(164.500000, 99.000000)">
                <mask id="mask-20" fill="white">
                    <use xlink:href="#path-19"></use>
                </mask>
                <use id="Path-258" fill="#8C5C54" fill-rule="nonzero" xlink:href="#path-19"></use>
                <path d="M76.215146,69.849872 C58.7673032,60.4286165 51.0226473,53.1435414 52.9811783,47.9946468 C55.0413656,42.5785019 58.2613061,28.1959464 52.9811783,27.2914096 C50.1994946,26.8148804 37.0447081,23.177509 37.0447081,8.26685053 C37.0447081,-21.4213101 60.836524,22.4658469 62.3882459,26.8148804 C63.9399678,31.1639139 63.2238754,44.6392871 67.0117647,44.6392871 C70.799654,44.6392871 90.179041,57.2559649 87.9529412,60.6974097 C86.4688746,62.9917063 82.5562762,66.042527 76.215146,69.849872 Z" id="Path-259" fill="#70453A" fill-rule="nonzero" mask="url(#mask-20)"></path>
            </g>
            <g id="Group-7" transform="translate(63.500000, 126.000000)">
                <mask id="mask-22" fill="white">
                    <use xlink:href="#path-21"></use>
                </mask>
                <use id="Path-250" fill="#041C23" fill-rule="nonzero" xlink:href="#path-21"></use>
                <path d="M56.3639718,291.200617 C51.9960835,291.200617 40.5133293,284.193148 63.9109572,272.864142 C87.3085851,261.535135 89.7212288,275.855832 83.4496281,281.049627 C77.2572675,286.177799 60.7318601,291.200617 56.3639718,291.200617 Z" id="Path-251" fill="#000000" fill-rule="nonzero" mask="url(#mask-22)"></path>
                <path d="M69.1394596,80.1783675 C80.2753131,131.428504 81.8387063,163.14143 73.8296393,175.317144 C65.8205722,187.492858 69.7543543,220.221231 85.6309854,273.502263 C78.1633017,230.975471 78.9551355,201.375611 88.0064867,184.70268 C90.1279524,180.794861 85.1949498,171.922535 85.6309854,166.01856 C86.0719293,160.048126 91.8628325,157.023446 90.5801886,149.011664 C88.673158,137.099774 81.5262484,114.155342 69.1394596,80.1783675 Z" id="Path-256" fill="#000000" fill-rule="nonzero" mask="url(#mask-22)"></path>
                <path d="M228.838004,75.7233419 C227.85397,94.7793027 225.218985,108.724006 220.93305,117.557451 C196.859251,167.174291 185.386651,197.375375 187.808642,209.604636 C190.877425,225.099718 198.968935,248.914715 212.083173,281.049627 C201.710328,242.882705 197.199064,217.882452 198.549383,206.048866 C199.48512,197.848485 214.510488,161.455284 226.845401,120.934464 C229.851514,111.059228 230.515715,95.9888544 228.838004,75.7233419 Z" id="Path-255" fill="#000000" fill-rule="nonzero" mask="url(#mask-22)"></path>
                <path d="M174.781662,41.1108885 C179.20847,43.7999013 196.929337,46.6406031 201.347157,45.6079641 C205.764977,44.5753251 209.673721,36.9602608 208.13933,35.8695034 C206.604938,34.778746 187.878963,25.3350285 184.276113,27.0972607 C180.673262,28.859493 170.354855,38.4218757 174.781662,41.1108885 Z" id="Path-260" fill="#000000" fill-rule="nonzero" mask="url(#mask-22)"></path>
                <path d="M157.407407,50.7656002 C156.29011,51.3557777 156.3532,52.7101967 156.656515,54.3147868 C157.120731,56.7705661 158.147638,59.8123318 156.366866,61.5971985 C153.422549,64.5482852 146.91358,66.5160753 146.91358,73.6322675 C146.91358,80.7484597 139.372272,155.394092 137.194916,166.01856 C135.903323,172.320922 131.13644,219.514301 125.972632,257.759202 C122.431338,283.987223 117.299559,306.23429 118.580247,307.288899 C121.728395,309.881306 129.036479,312.473713 131.108292,309.881306 C131.839863,308.96591 134.844621,279.302437 139.604866,241.217913 C142.357733,219.193492 146.540296,194.263759 149.030748,170.679288 C154.429792,119.550561 156.906807,74.3736263 157.932099,73.6322675 C160.248144,71.9576024 159.370855,59.5133428 160.56211,59.5133428 C161.753365,59.5133428 159.370855,52.1656928 160.56211,52.1656928 C161.753365,52.1656928 160.234696,49.2721727 157.407407,50.7656002 Z" id="Path-263" fill="#000000" fill-rule="nonzero" mask="url(#mask-22)"></path>
                <ellipse id="Oval" fill="#F0F0F0" fill-rule="nonzero" mask="url(#mask-22)" cx="147.962963" cy="51.4718101" rx="2.09876543" ry="2.10089021"></ellipse>
                <ellipse id="Oval-Copy" fill="#F0F0F0" fill-rule="nonzero" mask="url(#mask-22)" cx="151.111111" cy="80.884273" rx="2.09876543" ry="2.10089021"></ellipse>
                <ellipse id="Oval-Copy-2" fill="#F0F0F0" fill-rule="nonzero" mask="url(#mask-22)" cx="147.962963" cy="123.952522" rx="2.09876543" ry="2.10089021"></ellipse>
                <ellipse id="Oval-Copy-3" fill="#F0F0F0" fill-rule="nonzero" mask="url(#mask-22)" cx="143.765432" cy="167.020772" rx="2.09876543" ry="2.10089021"></ellipse>
                <ellipse id="Oval-Copy-4" fill="#F0F0F0" fill-rule="nonzero" mask="url(#mask-22)" cx="136.419753" cy="216.391691" rx="2.09876543" ry="2.10089021"></ellipse>
                <ellipse id="Oval-Copy-5" fill="#F0F0F0" fill-rule="nonzero" mask="url(#mask-22)" cx="130.123457" cy="267.863501" rx="2.09876543" ry="2.10089021"></ellipse>
            </g>
            <g id="Group-6" transform="translate(273.500000, 386.000000)" fill-rule="nonzero">
                <path d="M6.28742515,109.724771 L170.808383,109.724771 C172.881149,112.009315 172.881149,113.416043 170.808383,113.944954 C167.699234,114.738321 8.3556279,115.123116 6.28742515,113.944954 C4.90862332,113.159513 4.90862332,111.752785 6.28742515,109.724771 Z" id="Rectangle" fill="#D2D2D2"></path>
                <path d="M7.33532934,0.527522936 L167.664671,0.527522936 C171.42649,0.527522936 174.476048,3.59786376 174.476048,7.3853211 L174.476048,105.504587 C174.476048,109.292044 171.42649,112.362385 167.664671,112.362385 L7.33532934,112.362385 C3.57350956,112.362385 0.523952096,109.292044 0.523952096,105.504587 L0.523952096,7.3853211 C0.523952096,3.59786376 3.57350956,0.527522936 7.33532934,0.527522936 Z" id="Rectangle" fill="#F0F0F0"></path>
                <path d="M87.9531527,51.1312462 C89.9071288,50.2149532 91.1627918,49.4130515 91.7201418,48.725541 C92.2774918,48.0380305 92.6752444,46.800387 92.9133995,45.0126105 C91.1018689,45.8034725 89.9122914,46.5489956 89.3446671,47.2491799 C88.7770427,47.9493641 88.3132046,49.2433862 87.9531527,51.1312462 Z" id="Path-248" fill="#FFFFFF"></path>
                <path d="M95.3592814,59.0834708 C95.3592814,60.791039 96.6311473,62.4946085 99.174879,64.1941794 C96.8946151,68.6431301 94.6234631,71.2099018 92.3614232,71.8944945 C91.0648804,72.2868853 89.5742202,70.8435756 87.9531527,70.8435756 C86.6659213,70.8435756 85.3295176,72.2801984 84.2731327,71.8944945 C78.1116802,69.6448445 75.9754574,61.1376581 76.7386129,58.1795762 C77.6326119,54.7143294 79.4088085,51.5317095 82.2502579,51.5317095 C85.0917072,51.5317095 85.9768076,53.2125439 87.9531527,53.2125439 C89.9294979,53.2125439 92.0530376,51.142362 93.3464541,51.142362 C94.6398707,51.142362 96.351032,51.5317095 98.0804058,53.2125439 C96.2663229,55.418927 95.3592814,57.3759027 95.3592814,59.0834708 Z" id="Path-249" fill="#FFFFFF"></path>
            </g>
            <path d="M116.805413,410.991976 C117.636856,408.188759 122.556847,403.505002 129.828643,400.7768 C136.934129,398.110993 143.01246,397.584181 145.699815,398.276767 C149.434308,399.239221 149.76393,404.253047 151.782188,411.606884 C154.695185,422.220846 173.5,479.838269 173.5,483.470239 C173.5,487.002735 156.161136,496.416811 149.274147,491.707952 C144.858071,488.688536 129.828643,448.760852 124.506463,436.087025 C120.501916,426.550905 115.161543,416.534298 116.805413,410.991976 Z" id="Path-253" fill="#8C5C54" fill-rule="nonzero"></path>
            <path d="M113.5,412.909633 C111.466702,409.005437 109.85725,405.126034 108.671645,401.271423 C107.486039,397.416812 106.028945,391.326337 104.300362,383 C104.467338,385.971401 103.830205,391.45154 102.388965,399.440417 C100.947725,407.429293 98.3180703,412.949154 94.5,416 C100.039408,414.331197 104.01243,413.301074 106.419066,412.909633 C108.825701,412.518191 111.186012,412.518191 113.5,412.909633 Z" id="Path-254" fill="#000000" fill-rule="nonzero"></path>
            <path d="M288.926512,64.7846881 C294.342303,73.330742 294.863081,93.6753195 294.342303,96.6703903 C293.821526,99.6654612 290.949784,107.438867 289.419361,107.438867 C287.888938,107.438867 289.964085,114.430112 288.926512,116.808289 C287.888938,119.186467 297.836687,129.319401 288.65415,134.081837 C289.685005,138.53249 288.271544,141.473683 285.97591,144.710762 C287.577603,147.277461 287.19528,151.422512 280.655207,153.372708 C277.817439,157.980577 276.903676,166.87305 269.141259,165.930631 C261.378841,164.988213 223.143848,149.586433 223.143848,141.084705 C223.143848,132.582977 221.858855,124.102978 218.922154,124.102978 C215.985453,124.102978 199.25304,119.687847 204.517519,96.6703903 C206.565436,87.7164477 222.265463,104.123179 221.742129,105.781023 C221.218795,107.438867 208.012302,67.6214709 221.742129,63.4675876 C235.471957,59.3137043 261.545374,43.9284178 273.569339,50.6971908 C285.593304,57.4659638 283.51072,56.2386342 288.926512,64.7846881 Z" id="Path-257" fill="#8C5C54" fill-rule="nonzero"></path>
            <path d="M186.971426,129.425245 C184.516918,126.99328 187.874014,118.52309 185.616527,118.52309 C183.359041,118.52309 180.95702,123.077118 180.106902,121.421827 C179.256784,119.766536 181.354231,115.536569 179.256784,115.536569 C177.159338,115.536569 176.471937,122.69276 174.70828,121.421827 C172.944624,120.150895 174.107678,115.536569 173.526151,115.536569 C172.944624,115.536569 167.481799,119.437956 165.929333,117.487263 C164.376866,115.536569 167.597037,112.972749 164.376866,113.558494 C161.156695,114.14424 155.87932,117.468297 157.047784,113.558494 C158.216248,109.648692 169.144803,105.605122 165.929333,103.460728 C162.713862,101.316335 154.892449,105.952971 154.160112,102.776186 C153.427776,99.5994002 152.412755,95.6224604 150.710042,92.4806628 C149.00733,89.3388651 158.216248,88.7050292 158.216248,86.1859119 C158.216248,83.6667947 151.27244,84.9550614 154.160112,82.7193079 C157.047784,80.4835544 165.27735,76.9729808 164.376866,74.420397 C163.476382,71.8678131 156.869053,70.5098832 158.216248,67.9020288 C159.563444,65.2941745 165.917516,61.4729048 165.147191,58.1977481 C164.376866,54.9225914 167.772058,46.6131673 171.240169,43.7757665 C174.70828,40.9383657 172.264846,40.0746058 174.70828,35.6874474 C177.151715,31.300289 185.421113,33.1216798 186.19627,29.5787908 C186.971426,26.0359018 185.723964,13.2212617 194.100144,14.1400702 C202.476325,15.0588786 211.888063,20.8201932 211.888063,15.5629049 C211.888063,10.3056167 213.707792,3.52306577 217.977431,6.91434122 C222.24707,10.3056167 227.661219,-0.47821332 233.178758,3.5550111 C238.696298,7.58823552 249.265189,6.91434122 252.89866,3.5550111 C256.532131,0.19568098 256.429545,3.06467567 258.302822,4.98950845 C260.176099,6.91434122 263.286624,4.03672636 263.294259,2.46582754 C263.301894,0.894928714 273.83753,-3.31120613 271.145579,4.98950845 C268.453628,13.290223 275.099359,12.1259933 275.099359,12.1259933 C275.099359,12.1259933 281.245857,7.90971708 282.297947,10.6423103 C283.350036,13.3749035 279.512574,12.1209226 278.836867,13.1304964 C278.16116,14.1400702 281.325611,19.694471 283.350036,19.127583 C285.374462,18.5606951 287.500943,16.1005576 289.898782,16.4856671 C292.296622,16.8707767 302.12492,25.2793553 299.218781,36.4019072 C296.312643,47.5244591 305.5,42.5780039 305.5,47.5183743 C305.5,52.4587446 302.025094,51.9486335 302.696643,54.5646009 C303.368192,57.1805683 308.279567,60.5429408 301.526168,63.5138563 C294.772768,66.4847718 293.465966,69.8049184 292.296622,72.4016172 C291.127278,74.998316 290.758364,67.8832673 288.066413,66.1404722 C285.374462,64.3976771 284.342525,69.3238495 280.937658,68.6129392 C277.53279,67.9020288 270.37645,62.485521 268.453628,66.1404722 C266.530806,69.7954234 259.500887,67.1987246 257.30126,64.7126226 C255.101632,62.2265206 248.840842,61.976424 245.764327,67.1987246 C242.687812,72.4210251 245.949979,82.7087942 241.534119,84.9167112 C237.118258,87.1246283 233.006228,94.5728282 233.809093,99.0167783 C234.611959,103.460728 234.296635,121.416031 229.228057,117.487263 C227.748521,116.340441 228.391742,113.687779 227.719726,112.537258 C226.089556,109.746338 224.046357,106.868273 223.596886,100.491841 C222.962127,91.4868081 222.579534,106.440214 219.627799,105.677076 C216.676063,104.913937 209.174888,93.8334373 206.221779,98.8141517 C203.26867,103.794866 207.621625,112.537258 202.689076,112.537258 C199.998545,112.537258 200.396241,117.382452 199.121921,120.375829 C198.060031,122.87021 196.894118,123.507959 197.756526,124.310393 C198.762191,125.246123 195.978838,127.934703 194.100144,130.068651 C192.4344,131.960717 188.124946,130.568172 186.971426,129.425245 Z" id="Path-3" fill="#000000" fill-rule="nonzero"></path>
            <g id="Group-9-Copy" transform="translate(132.500000, 419.000000)">
                <path d="M2.11764706,10.3702538 L7.41176471,73.4019236 C15.75567,75.3484076 22.1603218,76.3216496 26.6257202,76.3216496 C31.0911186,76.3216496 37.7452903,75.3484076 46.5882353,73.4019236 L51.1337934,10.3702538 L2.11764706,10.3702538 Z" id="Path-261" fill="#0391BC" fill-rule="nonzero"></path>
                <polygon id="Path-262" fill="#01232F" fill-rule="nonzero" points="53.0788889 11.1146077 0.716227598 11.1146077 0.716227598 7.0292841 3.89574087 7.0292841 5.29411765 0.269666632 48.4462789 0.269666632 50.1098514 6.33123737 53.0788889 6.33123737"></polygon>
                <mask id="mask-24" fill="white">
                    <use xlink:href="#path-23"></use>
                </mask>
                <use id="logo" fill="#FFFFFF" xlink:href="#path-23"></use>
            </g>
            <g id="Group-9" transform="translate(159.500000, 423.000000)">
                <path d="M2.11764706,10.3702538 L7.41176471,73.4019236 C15.75567,75.3484076 22.1603218,76.3216496 26.6257202,76.3216496 C31.0911186,76.3216496 37.7452903,75.3484076 46.5882353,73.4019236 L51.1337934,10.3702538 L2.11764706,10.3702538 Z" id="Path-261" fill="#049BC9" fill-rule="nonzero"></path>
                <polygon id="Path-262" fill="#022F40" fill-rule="nonzero" points="53.0788889 11.1146077 0.716227598 11.1146077 0.716227598 7.0292841 3.89574087 7.0292841 5.29411765 0.269666632 48.4462789 0.269666632 50.1098514 6.33123737 53.0788889 6.33123737"></polygon>
                <mask id="mask-26" fill="white">
                    <use xlink:href="#path-25"></use>
                </mask>
                <use id="logo" fill="#FFFFFF" xlink:href="#path-25"></use>
            </g>
        </g>
        <g id="Group-13" transform="translate(106.000000, 113.000000)" fill-rule="nonzero">
            <path d="M56.1441276,401 L56.1441276,378.707506 C60.2427369,374.044355 77.0926993,367.388759 117.875474,367.116693 C158.658248,366.844627 173.818595,370.516336 179.60682,376.723835 L179.60682,401 L56.1441276,401 Z" id="Path-265" fill="#004054"></path>
            <path d="M112.5,388 C142.599519,388 173.818595,381.97054 173.818595,376.723835 C173.818595,371.47713 144.599519,369 114.5,369 C84.4004811,369 60,373.253295 60,378.5 C60,383.746705 82.4004811,388 112.5,388 Z" id="Oval" fill="#8C5C54"></path>
            <path d="M78.747096,135.467006 C78.3089241,140.819279 77.2992843,145.509151 75.9206651,148.87719 C78.9528404,149.107548 81.776516,149.373542 84.2214777,149.613954 C83.0561202,145.028628 81.0881343,140.053855 78.747096,135.467006 Z M98.6148635,178.054826 C96.352647,187.516093 91.1109036,198.023901 83.3691721,201.060597 C68.3640891,206.946345 66.543357,247.365 49.3101506,225.823796 C45.9555997,221.630667 45.427898,216.622174 46.8072447,211.274631 C38.6442636,211.426662 31.3806362,199.331385 41.1817973,185.759933 C25.2044008,188.518058 29.5552644,166.099376 36.3691721,155.237274 C39.6726131,149.971234 49.8677345,148.404134 60.7180695,148.293012 C57.3663241,144.959045 53.9554764,140.423787 51.0388781,135.106297 C32.1555219,143.630556 25.0060514,148.143026 19.4454072,143.493892 C13.8018151,138.775408 15.7898322,118.880758 27.9652826,119.738863 C30.9471834,119.949022 37.5311441,120.915058 45.6417279,122.323434 C45.382592,121.470437 45.1402744,120.608556 44.9161894,119.738863 C40.1407329,101.204911 32.6128034,115.061075 27.7896534,103.016154 C27.0147888,101.081074 27.4386344,99.2044158 28.7349722,97.5078567 C20.6620567,90.5278114 10.691258,80.0377414 7.00091036,81.2963233 C1.97441864,83.0105931 -5.02923157,79.1271925 5.41040509,65.3074409 C15.8500418,51.4876894 34.993007,36.3193354 45.196334,57.8692228 C46.8532852,61.3687785 49.0944663,64.6855461 51.6864308,67.8175471 C54.1482892,59.6084827 57.8629697,52.8419205 62.7307137,48.5602843 C60.7072733,44.643716 58.3323635,40.5529729 55.3996611,36.8353499 C46.3379849,25.3483688 32.6008705,17.0269173 31.3691721,13.8131972 C28.9748202,7.56590716 34.7780646,-5.95587804 55.3996611,2.94645357 C72.8924978,10.4981013 85.9928569,35.662257 87.555317,46.9826382 C89.4935197,48.139903 91.1386859,49.5201328 92.5350988,51.0532166 C93.9965508,51.0828847 95.4599249,51.1198159 96.9102639,51.161496 C98.8602112,46.3876406 100.369172,40.6261058 100.369172,34.9523273 C100.369172,25.1542776 107.841553,11.8487852 119.063333,11.8487852 C130.285113,11.8487852 164.162834,-1.4567072 162.266003,11.8487852 C161.398945,17.9308416 140.543225,32.5889249 126.395971,50.0281741 C125.986207,50.5332873 125.580097,51.039988 125.177661,51.5478982 C130.132613,50.9666176 133.471042,49.8401868 140.753427,49.8401868 C150.568211,49.8401868 163.370561,52.4556216 156.969386,62.6793549 C152.701936,69.4951771 154.621324,69.4951771 162.72755,62.6793549 C176.326361,34.4836092 186.951592,24.0140505 194.603244,31.2706788 C206.080722,42.1556213 199.185723,45.3036106 206.080722,45.3036106 C212.97572,45.3036106 236.036526,37.5611873 218.164511,62.6793549 C200.292497,87.7975225 178.500371,119.881401 167.734879,119.810132 C156.969386,119.738863 150.655307,133.087385 160.369172,129.172412 C170.083037,125.257439 178.983651,113.996606 190.975992,122.57205 C202.968332,131.147495 172.459493,129.348214 164.714439,134.722168 C156.969386,140.096123 179.650952,142.31576 179.650952,144.030273 C179.650952,145.744785 181.659487,158.138392 190.975992,156.914411 C200.292497,155.690429 218.493249,170.788476 207.938148,171.55503 C197.383048,172.321584 159.282787,147.997989 152.82598,152.691197 C146.369172,157.384406 172.629121,174.042603 162.72755,174.834531 C152.82598,175.626459 136.137683,172.004008 140.753427,180.856049 C145.369172,189.708091 155.835899,226.83746 137.512077,225.823796 C119.188254,224.810132 113.431044,181.253698 100.369172,178.440078 C99.776103,178.312327 99.1909841,178.18409 98.6148635,178.054826 Z" id="Combined-Shape" fill="#79EAA4"></path>
            <path d="M92,160.511452 C92,161.907214 102.432009,171.404552 104.5,184.938776 C106.567991,198.472999 104.5,237.064466 104.5,242.319238 C104.5,245.82242 107,291.285176 112,378.707506 L117.466527,378.707506 C112.953638,298.083205 110.697193,252.620449 110.697193,242.319238 C110.697193,226.867421 110.129276,179.006884 112,172.280241 C113.870724,165.553598 117.466527,161.770733 117.466527,159.744898 C117.466527,157.719063 114.248904,157.188327 112.5,158.032787 C111.334064,158.59576 110.178885,160.523607 109.034463,163.816327 C109.90668,151.654958 109.90668,144.858563 109.034463,143.427142 C107.726137,141.280011 105.826933,142.2192 104.5,143.661739 C103.615378,144.623432 103.615378,154.563794 104.5,173.482825 C98.1710635,162.873693 94.6710635,157.220942 94,156.524572 C92.9934048,155.480019 92,159.11569 92,160.511452 Z" id="Path-266" fill="#8C5C54"></path>
        </g>
        <g id="Group-13-Copy" transform="translate(971.000000, 113.000000)" fill-rule="nonzero">
            <path d="M56.1441276,401 L56.1441276,378.707506 C60.2427369,374.044355 77.0926993,367.388759 117.875474,367.116693 C158.658248,366.844627 173.818595,370.516336 179.60682,376.723835 L179.60682,401 L56.1441276,401 Z" id="Path-265" fill="#004054"></path>
            <path d="M112.5,388 C142.599519,388 173.818595,381.97054 173.818595,376.723835 C173.818595,371.47713 144.599519,369 114.5,369 C84.4004811,369 60,373.253295 60,378.5 C60,383.746705 82.4004811,388 112.5,388 Z" id="Oval" fill="#8C5C54"></path>
            <path d="M78.747096,135.467006 C78.3089241,140.819279 77.2992843,145.509151 75.9206651,148.87719 C78.9528404,149.107548 81.776516,149.373542 84.2214777,149.613954 C83.0561202,145.028628 81.0881343,140.053855 78.747096,135.467006 Z M98.6148635,178.054826 C96.352647,187.516093 91.1109036,198.023901 83.3691721,201.060597 C68.3640891,206.946345 66.543357,247.365 49.3101506,225.823796 C45.9555997,221.630667 45.427898,216.622174 46.8072447,211.274631 C38.6442636,211.426662 31.3806362,199.331385 41.1817973,185.759933 C25.2044008,188.518058 29.5552644,166.099376 36.3691721,155.237274 C39.6726131,149.971234 49.8677345,148.404134 60.7180695,148.293012 C57.3663241,144.959045 53.9554764,140.423787 51.0388781,135.106297 C32.1555219,143.630556 25.0060514,148.143026 19.4454072,143.493892 C13.8018151,138.775408 15.7898322,118.880758 27.9652826,119.738863 C30.9471834,119.949022 37.5311441,120.915058 45.6417279,122.323434 C45.382592,121.470437 45.1402744,120.608556 44.9161894,119.738863 C40.1407329,101.204911 32.6128034,115.061075 27.7896534,103.016154 C27.0147888,101.081074 27.4386344,99.2044158 28.7349722,97.5078567 C20.6620567,90.5278114 10.691258,80.0377414 7.00091036,81.2963233 C1.97441864,83.0105931 -5.02923157,79.1271925 5.41040509,65.3074409 C15.8500418,51.4876894 34.993007,36.3193354 45.196334,57.8692228 C46.8532852,61.3687785 49.0944663,64.6855461 51.6864308,67.8175471 C54.1482892,59.6084827 57.8629697,52.8419205 62.7307137,48.5602843 C60.7072733,44.643716 58.3323635,40.5529729 55.3996611,36.8353499 C46.3379849,25.3483688 32.6008705,17.0269173 31.3691721,13.8131972 C28.9748202,7.56590716 34.7780646,-5.95587804 55.3996611,2.94645357 C72.8924978,10.4981013 85.9928569,35.662257 87.555317,46.9826382 C89.4935197,48.139903 91.1386859,49.5201328 92.5350988,51.0532166 C93.9965508,51.0828847 95.4599249,51.1198159 96.9102639,51.161496 C98.8602112,46.3876406 100.369172,40.6261058 100.369172,34.9523273 C100.369172,25.1542776 107.841553,11.8487852 119.063333,11.8487852 C130.285113,11.8487852 164.162834,-1.4567072 162.266003,11.8487852 C161.398945,17.9308416 140.543225,32.5889249 126.395971,50.0281741 C125.986207,50.5332873 125.580097,51.039988 125.177661,51.5478982 C130.132613,50.9666176 133.471042,49.8401868 140.753427,49.8401868 C150.568211,49.8401868 163.370561,52.4556216 156.969386,62.6793549 C152.701936,69.4951771 154.621324,69.4951771 162.72755,62.6793549 C176.326361,34.4836092 186.951592,24.0140505 194.603244,31.2706788 C206.080722,42.1556213 199.185723,45.3036106 206.080722,45.3036106 C212.97572,45.3036106 236.036526,37.5611873 218.164511,62.6793549 C200.292497,87.7975225 178.500371,119.881401 167.734879,119.810132 C156.969386,119.738863 150.655307,133.087385 160.369172,129.172412 C170.083037,125.257439 178.983651,113.996606 190.975992,122.57205 C202.968332,131.147495 172.459493,129.348214 164.714439,134.722168 C156.969386,140.096123 179.650952,142.31576 179.650952,144.030273 C179.650952,145.744785 181.659487,158.138392 190.975992,156.914411 C200.292497,155.690429 218.493249,170.788476 207.938148,171.55503 C197.383048,172.321584 159.282787,147.997989 152.82598,152.691197 C146.369172,157.384406 172.629121,174.042603 162.72755,174.834531 C152.82598,175.626459 136.137683,172.004008 140.753427,180.856049 C145.369172,189.708091 155.835899,226.83746 137.512077,225.823796 C119.188254,224.810132 113.431044,181.253698 100.369172,178.440078 C99.776103,178.312327 99.1909841,178.18409 98.6148635,178.054826 Z" id="Combined-Shape" fill="#79EAA4"></path>
            <path d="M92,160.511452 C92,161.907214 102.432009,171.404552 104.5,184.938776 C106.567991,198.472999 104.5,237.064466 104.5,242.319238 C104.5,245.82242 107,291.285176 112,378.707506 L117.466527,378.707506 C112.953638,298.083205 110.697193,252.620449 110.697193,242.319238 C110.697193,226.867421 110.129276,179.006884 112,172.280241 C113.870724,165.553598 117.466527,161.770733 117.466527,159.744898 C117.466527,157.719063 114.248904,157.188327 112.5,158.032787 C111.334064,158.59576 110.178885,160.523607 109.034463,163.816327 C109.90668,151.654958 109.90668,144.858563 109.034463,143.427142 C107.726137,141.280011 105.826933,142.2192 104.5,143.661739 C103.615378,144.623432 103.615378,154.563794 104.5,173.482825 C98.1710635,162.873693 94.6710635,157.220942 94,156.524572 C92.9934048,155.480019 92,159.11569 92,160.511452 Z" id="Path-266" fill="#8C5C54"></path>
        </g>
    </g>
</svg>